<svg width="26" height="26" viewBox="0 0 26 26" fill="none" xmlns="http://www.w3.org/2000/svg">
<path fill-rule="evenodd" clip-rule="evenodd" d="M13.5745 4.84198C13.8918 5.15928 13.8918 5.67373 13.5745 5.99103L7.37818 12.1873H20.5833C21.032 12.1873 21.3958 12.5511 21.3958 12.9998C21.3958 13.4486 21.032 13.8123 20.5833 13.8123H7.37817L13.5745 20.0086C13.8918 20.326 13.8918 20.8404 13.5745 21.1577C13.2572 21.475 12.7427 21.475 12.4254 21.1577L4.8421 13.5743C4.68973 13.422 4.60413 13.2153 4.60413 12.9998C4.60413 12.7843 4.68973 12.5777 4.8421 12.4253L12.4254 4.84198C12.7427 4.52468 13.2572 4.52468 13.5745 4.84198Z" fill="#262626"/>
</svg>
